<svg width="34" height="34" viewBox="0 0 34 34" fill="none" xmlns="http://www.w3.org/2000/svg">
<path d="M14.875 31.1667C7.44221 31.1667 1.41671 24.824 1.41671 17C1.41671 9.17596 7.44221 2.83333 14.875 2.83333C22.3079 2.83333 28.3334 9.17596 28.3334 17C28.3334 24.824 22.3079 31.1667 14.875 31.1667Z" stroke="#FFE100" stroke-width="2" stroke-linecap="round" stroke-linejoin="round"/>
<path d="M18.4167 12.4667C17.5152 11.7352 16.3901 11.3352 15.2292 11.3333C12.2953 11.3333 9.91669 13.8692 9.91669 17C9.91669 20.1308 12.2953 22.6667 15.2292 22.6667C16.4249 22.6667 17.5284 22.2445 18.4167 21.5333" stroke="#FFE100" stroke-width="2" stroke-linecap="round" stroke-linejoin="round"/>
<path d="M14.1667 2.83333C20.3051 2.83333 32.5834 4.24999 32.5834 17C32.5834 29.75 20.3051 31.1667 14.1667 31.1667" stroke="#FFE100" stroke-width="2"/>
</svg>
