<svg width="32" height="32" viewBox="0 0 32 32" fill="none" xmlns="http://www.w3.org/2000/svg">
<path d="M3.0576 11.8128C3.64872 9.98766 4.6193 8.30821 5.9056 6.88481C6.01199 6.76724 6.15093 6.68393 6.30476 6.64547C6.45859 6.60701 6.62039 6.61514 6.7696 6.66881L9.8384 7.76641C10.0569 7.84443 10.2897 7.874 10.5207 7.85308C10.7517 7.83217 10.9755 7.76126 11.1764 7.64529C11.3773 7.52931 11.5506 7.37103 11.6842 7.18142C11.8179 6.99182 11.9087 6.77541 11.9504 6.54721L12.536 3.33761C12.5643 3.18137 12.6384 3.03708 12.749 2.92311C12.8595 2.80914 13.0015 2.73064 13.1568 2.69761C15.0311 2.29692 16.9689 2.29692 18.8432 2.69761C18.9985 2.73064 19.1405 2.80914 19.251 2.92311C19.3616 3.03708 19.4357 3.18137 19.464 3.33761L20.0496 6.54721C20.0913 6.77541 20.1821 6.99182 20.3158 7.18142C20.4494 7.37103 20.6227 7.52931 20.8236 7.64529C21.0245 7.76126 21.2482 7.83217 21.4793 7.85308C21.7103 7.874 21.9431 7.84443 22.1616 7.76641L25.232 6.66881C25.3814 6.61533 25.5432 6.60745 25.6971 6.6462C25.8509 6.68495 25.9898 6.76856 26.096 6.88641C27.3821 8.30935 28.3527 9.98822 28.944 11.8128C28.9926 11.9637 28.9953 12.1256 28.9517 12.278C28.9081 12.4304 28.8202 12.5664 28.6992 12.6688L26.2112 14.7808C26.0345 14.931 25.8925 15.1179 25.7951 15.3284C25.6977 15.5389 25.6473 15.7681 25.6473 16C25.6473 16.232 25.6977 16.4611 25.7951 16.6717C25.8925 16.8822 26.0345 17.069 26.2112 17.2192L28.6992 19.3312C28.8199 19.4338 28.9075 19.5699 28.9508 19.7223C28.9941 19.8747 28.9912 20.0365 28.9424 20.1872C28.3513 22.0124 27.3807 23.6918 26.0944 25.1152C25.988 25.2328 25.8491 25.3161 25.6952 25.3546C25.5414 25.393 25.3796 25.3849 25.2304 25.3312L22.1616 24.2336C21.9431 24.1556 21.7103 24.126 21.4793 24.1469C21.2482 24.1679 21.0245 24.2388 20.8236 24.3547C20.6227 24.4707 20.4494 24.629 20.3158 24.8186C20.1821 25.0082 20.0913 25.2246 20.0496 25.4528L19.464 28.664C19.4354 28.82 19.3612 28.9639 19.2506 29.0776C19.1401 29.1912 18.9983 29.2695 18.8432 29.3024C16.9689 29.7031 15.0311 29.7031 13.1568 29.3024C13.0015 29.2694 12.8595 29.1909 12.749 29.0769C12.6384 28.9629 12.5643 28.8187 12.536 28.6624L11.9504 25.4528C11.9087 25.2246 11.8179 25.0082 11.6842 24.8186C11.5506 24.629 11.3773 24.4707 11.1764 24.3547C10.9755 24.2388 10.7517 24.1679 10.5207 24.1469C10.2897 24.126 10.0569 24.1556 9.8384 24.2336L6.7696 25.3312C6.62024 25.3847 6.45834 25.3926 6.3045 25.3538C6.15065 25.3151 6.0118 25.2315 5.9056 25.1136C4.6195 23.6907 3.64892 22.0118 3.0576 20.1872C3.00882 20.0365 3.0059 19.8747 3.04919 19.7223C3.09249 19.5699 3.18006 19.4338 3.3008 19.3312L5.7888 17.2192C5.96554 17.069 6.10751 16.8822 6.20488 16.6717C6.30224 16.4611 6.35267 16.232 6.35267 16C6.35267 15.7681 6.30224 15.5389 6.20488 15.3284C6.10751 15.1179 5.96554 14.931 5.7888 14.7808L3.3008 12.6688C3.18006 12.5662 3.09249 12.4301 3.04919 12.2777C3.0059 12.1254 3.00882 11.9635 3.0576 11.8128ZM4.7536 11.8032L6.824 13.56C7.17803 13.8604 7.46245 14.2343 7.65752 14.6556C7.85259 15.077 7.95363 15.5357 7.95363 16C7.95363 16.4643 7.85259 16.9231 7.65752 17.3444C7.46245 17.7658 7.17803 18.1396 6.824 18.44L4.7552 20.1968C5.2224 21.448 5.896 22.6128 6.7456 23.64L9.2992 22.728C9.46453 22.6693 9.63253 22.624 9.8032 22.592C10.6381 22.4399 11.4992 22.6257 12.1971 23.1085C12.8951 23.5913 13.3726 24.3315 13.5248 25.1664L14.0112 27.8368C15.3281 28.0551 16.6719 28.0551 17.9888 27.8368L18.4752 25.1648C18.558 24.708 18.7394 24.2746 19.0067 23.895C19.274 23.5153 19.6208 23.1984 20.0229 22.9664C20.4251 22.7343 20.8729 22.5926 21.3354 22.5512C21.7979 22.5097 22.2638 22.5695 22.7008 22.7264L25.2544 23.64C26.1053 22.6111 26.7786 21.4474 27.2464 20.1968L25.176 18.44C24.8215 18.1399 24.5366 17.7662 24.3412 17.3448C24.1458 16.9234 24.0446 16.4645 24.0446 16C24.0446 15.5355 24.1458 15.0766 24.3412 14.6552C24.5366 14.2339 24.8215 13.8601 25.176 13.56L27.2464 11.8032C26.7786 10.5527 26.1053 9.38893 25.2544 8.36001L22.7008 9.27201C22.2639 9.42804 21.7982 9.48718 21.3362 9.44535C20.8741 9.40352 20.4266 9.26171 20.0248 9.02976C19.623 8.7978 19.2765 8.48125 19.0091 8.10203C18.7418 7.72282 18.5602 7.29001 18.4768 6.83361L17.9888 4.16321C16.6719 3.94489 15.3281 3.94489 14.0112 4.16321L13.5248 6.83361C13.4416 7.29015 13.2601 7.72314 12.9929 8.10254C12.7257 8.48194 12.3791 8.79869 11.9773 9.03081C11.5754 9.26293 11.1279 9.40487 10.6658 9.4468C10.2036 9.48873 9.73784 9.42963 9.3008 9.27361L6.7456 8.36001C5.89523 9.38905 5.22093 10.5528 4.7536 11.8032ZM12.0032 16C12.0032 14.9391 12.4246 13.9217 13.1748 13.1716C13.9249 12.4214 14.9423 12 16.0032 12C17.0641 12 18.0815 12.4214 18.8316 13.1716C19.5818 13.9217 20.0032 14.9391 20.0032 16C20.0032 17.0609 19.5818 18.0783 18.8316 18.8284C18.0815 19.5786 17.0641 20 16.0032 20C14.9423 20 13.9249 19.5786 13.1748 18.8284C12.4246 18.0783 12.0032 17.0609 12.0032 16ZM13.6032 16C13.6032 16.6365 13.8561 17.247 14.3061 17.6971C14.7562 18.1472 15.3667 18.4 16.0032 18.4C16.6397 18.4 17.2502 18.1472 17.7003 17.6971C18.1503 17.247 18.4032 16.6365 18.4032 16C18.4032 15.3635 18.1503 14.753 17.7003 14.303C17.2502 13.8529 16.6397 13.6 16.0032 13.6C15.3667 13.6 14.7562 13.8529 14.3061 14.303C13.8561 14.753 13.6032 15.3635 13.6032 16Z" fill="white"/>
</svg>
