<svg width="32" height="32" viewBox="0 0 32 32" fill="none" xmlns="http://www.w3.org/2000/svg">
<path d="M23 2.66665C23 2.31302 23.1405 1.97389 23.3905 1.72384C23.6406 1.47379 23.9797 1.33331 24.3333 1.33331H29.3333C29.687 1.33331 30.0261 1.47379 30.2761 1.72384C30.5262 1.97389 30.6667 2.31302 30.6667 2.66665V9.33331C30.6667 9.68694 30.5262 10.0261 30.2761 10.2761C30.0261 10.5262 29.687 10.6666 29.3333 10.6666H28V29.6666C28 29.9319 27.8946 30.1862 27.7071 30.3738C27.5196 30.5613 27.2652 30.6666 27 30.6666C26.7348 30.6666 26.4804 30.5613 26.2929 30.3738C26.1054 30.1862 26 29.9319 26 29.6666V10.6666H24.3333C23.9797 10.6666 23.6406 10.5262 23.3905 10.2761C23.1405 10.0261 23 9.68694 23 9.33331V2.66665ZM21.0667 3.99998C21.2693 3.99998 21.4693 4.01376 21.6667 4.04131V6.07998C21.4708 6.02855 21.2692 6.00212 21.0667 6.00131H10.9347C10.4142 6.00127 9.90859 6.17527 9.49835 6.49563C9.08812 6.81599 8.79678 7.26432 8.67067 7.76931L7.61467 12H24.6667V14H7C6.73478 14 6.48043 14.1053 6.29289 14.2929C6.10536 14.4804 6 14.7348 6 15V22.6666H24.6667V24.6666H23.332L23.3333 26.3293C23.3333 26.5133 23.4827 26.6626 23.6667 26.6626H24.6667V28.6626H23.6667C23.0478 28.6626 22.4543 28.4168 22.0168 27.9792C21.5792 27.5416 21.3333 26.9482 21.3333 26.3293L21.332 24.6666H10.672V26.3293C10.672 26.9482 10.4262 27.5416 9.98858 27.9792C9.551 28.4168 8.95751 28.6626 8.33867 28.6626H6.33333C5.71449 28.6626 5.121 28.4168 4.68342 27.9792C4.24583 27.5416 4 26.9482 4 26.3293V15C4 13.9133 4.57733 12.9613 5.44267 12.436L5.71867 11.3333H5C4.75835 11.3333 4.52488 11.2458 4.34276 11.087C4.16064 10.9281 4.0422 10.7087 4.00933 10.4693L4 10.3333C4.00001 10.0917 4.08752 9.85819 4.24636 9.67607C4.40519 9.49395 4.6246 9.37551 4.864 9.34265L5 9.33331H6.21733L6.732 7.28265C6.96633 6.34503 7.50737 5.51266 8.2691 4.91787C9.03084 4.32307 9.96955 3.99999 10.936 3.99998H21.0667ZM8.67067 24.6666H5.99867L6 26.3293C6 26.5133 6.14933 26.6626 6.33333 26.6626H8.33867C8.42707 26.6626 8.51186 26.6275 8.57437 26.565C8.63688 26.5025 8.672 26.4177 8.672 26.3293L8.67067 24.6666ZM13.664 18.6666H18.3333C18.5866 18.6671 18.8302 18.7635 19.0151 18.9366C19.2 19.1097 19.3123 19.3465 19.3294 19.5992C19.3465 19.8518 19.2671 20.1016 19.1072 20.298C18.9473 20.4944 18.7189 20.6228 18.468 20.6573L18.3333 20.6666H13.664C13.4106 20.6666 13.1667 20.5703 12.9816 20.3973C12.7965 20.2244 12.6839 19.9876 12.6666 19.7348C12.6494 19.482 12.7287 19.2321 12.8886 19.0356C13.0485 18.839 13.277 18.7105 13.528 18.676L13.664 18.6666ZM22.6667 16C23.0203 16 23.3594 16.1405 23.6095 16.3905C23.8595 16.6406 24 16.9797 24 17.3333C24 17.6869 23.8595 18.0261 23.6095 18.2761C23.3594 18.5262 23.0203 18.6666 22.6667 18.6666C22.313 18.6666 21.9739 18.5262 21.7239 18.2761C21.4738 18.0261 21.3333 17.6869 21.3333 17.3333C21.3333 16.9797 21.4738 16.6406 21.7239 16.3905C21.9739 16.1405 22.313 16 22.6667 16ZM9.33333 16C9.68695 16 10.0261 16.1405 10.2761 16.3905C10.5262 16.6406 10.6667 16.9797 10.6667 17.3333C10.6667 17.6869 10.5262 18.0261 10.2761 18.2761C10.0261 18.5262 9.68695 18.6666 9.33333 18.6666C8.97971 18.6666 8.64057 18.5262 8.39052 18.2761C8.14048 18.0261 8 17.6869 8 17.3333C8 16.9797 8.14048 16.6406 8.39052 16.3905C8.64057 16.1405 8.97971 16 9.33333 16Z" fill="#FFE100"/>
</svg>
