<svg width="32" height="32" viewBox="0 0 32 32" fill="none" xmlns="http://www.w3.org/2000/svg">
<path d="M10.6423 5.15429L9.75086 5.36001C9.8316 5.71134 9.84169 6.07522 9.78055 6.43049C9.7194 6.78576 9.58825 7.12534 9.39471 7.42947C9.20117 7.7336 8.94911 7.99623 8.65317 8.20209C8.35723 8.40794 8.02333 8.55291 7.67086 8.62858C6.95614 8.77892 6.21097 8.64287 5.5955 8.24965C4.98003 7.85643 4.54339 7.23744 4.37943 6.52572L2.59658 6.89144C2.35208 6.94478 2.12094 7.04714 1.91711 7.19233C1.71329 7.33752 1.54101 7.52252 1.41069 7.73616C1.28037 7.9498 1.19471 8.18764 1.15889 8.43531C1.12308 8.68298 1.13784 8.93534 1.20229 9.17715C1.20229 9.17715 2.02515 12.9943 2.98515 17.2914M27.7851 5.13144C27.6486 5.51631 27.4353 5.86944 27.1582 6.16945C26.8811 6.46945 26.546 6.71008 26.1731 6.87676C25.8003 7.04344 25.3975 7.13269 24.9892 7.13911C24.5809 7.14553 24.1755 7.06899 23.7976 6.91412C23.4197 6.75925 23.0772 6.52928 22.7908 6.23813C22.5044 5.94699 22.2801 5.60073 22.1315 5.22035C21.9829 4.83996 21.913 4.43336 21.9262 4.02519C21.9393 3.61701 22.0352 3.21575 22.208 2.84572L20.3566 1.97715C19.8622 1.77112 19.3065 1.76837 18.8101 1.9695C18.3137 2.17062 17.9167 2.55939 17.7051 3.05144L10.0251 21.1314L9.01943 23.4172C8.81341 23.9115 8.81066 24.4672 9.01178 24.9636C9.21291 25.46 9.60168 25.857 10.0937 26.0686L19.3737 30.0229C19.8681 30.2289 20.4238 30.2316 20.9202 30.0305C21.4166 29.8294 21.8136 29.4406 22.0251 28.9486L30.7109 8.51429C30.9024 8.03912 30.9075 7.50918 30.7253 7.03035C30.5431 6.55153 30.187 6.15909 29.728 5.93144L27.7851 5.13144Z" stroke="white" stroke-linecap="round" stroke-linejoin="round"/>
</svg>
