<svg width="16" height="16" viewBox="0 0 16 16" fill="none" xmlns="http://www.w3.org/2000/svg">
<path d="M4.71195 8L3.35862 9.35333L2.00195 8L3.35529 6.64667L4.71195 8ZM8.00195 4.71L10.3233 7.032L11.6766 5.67867L8.00195 2L4.32329 5.67867L5.67662 7.032L8.00195 4.71ZM12.6446 6.64667L11.2913 8L12.6446 9.35333L13.998 8L12.6446 6.64667ZM8.00195 11.29L5.67995 8.968L4.32662 10.3213L8.00195 14L11.6766 10.3213L10.3233 8.968L8.00195 11.29ZM8.00195 9.35333L9.35529 8L8.00195 6.64667L6.64462 8L8.00195 9.35333Z" fill="black"/>
</svg>
